<svg width="36" height="36" viewBox="0 0 36 36" fill="none" xmlns="http://www.w3.org/2000/svg">
<circle cx="18" cy="18" r="17.75" fill="#DADADA" stroke="black" stroke-width="0.5"/>
<path d="M18 8C15.38 8 13.25 10.13 13.25 12.75C13.25 15.32 15.26 17.4 17.88 17.49C17.96 17.48 18.04 17.48 18.1 17.49C18.12 17.49 18.13 17.49 18.15 17.49C18.16 17.49 18.16 17.49 18.17 17.49C20.73 17.4 22.74 15.32 22.75 12.75C22.75 10.13 20.62 8 18 8Z" fill="#8B8B8B"/>
<path d="M23.08 20.15C20.29 18.29 15.74 18.29 12.93 20.15C11.66 21 10.96 22.15 10.96 23.38C10.96 24.61 11.66 25.75 12.92 26.59C14.32 27.53 16.16 28 18 28C19.84 28 21.68 27.53 23.08 26.59C24.34 25.74 25.04 24.6 25.04 23.36C25.03 22.13 24.34 20.99 23.08 20.15Z" fill="#8B8B8B"/>
</svg>
