<svg width="49" height="44" viewBox="0 0 49 44" fill="none" xmlns="http://www.w3.org/2000/svg">
<path d="M45.1787 0.5C46.6699 0.5 47.8789 1.70903 47.8789 3.2002V39.835C47.8789 41.3261 46.6699 42.5352 45.1787 42.5352H0.638672V0.5H45.1787Z" fill="#E6E6E6"/>
<path d="M45.1787 0.5C46.6699 0.5 47.8789 1.70903 47.8789 3.2002V39.835C47.8789 41.3261 46.6699 42.5352 45.1787 42.5352H0.638672V0.5H45.1787Z" stroke="#CECECE"/>
<path d="M29.9473 25.8633C30.1934 26.1367 30.1934 26.5469 29.9199 26.793L29.1543 27.5586C28.9082 27.832 28.498 27.832 28.2246 27.5586L25.5176 24.8516C25.3809 24.7148 25.3262 24.5508 25.3262 24.3867V23.9219C24.3418 24.6875 23.1387 25.125 21.8262 25.125C18.6816 25.125 16.1387 22.582 16.1387 19.4375C16.1387 16.3203 18.6816 13.75 21.8262 13.75C24.9434 13.75 27.5137 16.3203 27.5137 19.4375C27.5137 20.7773 27.0488 21.9805 26.3105 22.9375H26.748C26.9121 22.9375 27.0762 23.0195 27.2129 23.1289L29.9473 25.8633ZM21.8262 22.9375C23.7402 22.9375 25.3262 21.3789 25.3262 19.4375C25.3262 17.5234 23.7402 15.9375 21.8262 15.9375C19.8848 15.9375 18.3262 17.5234 18.3262 19.4375C18.3262 21.3789 19.8848 22.9375 21.8262 22.9375Z" fill="#4E4E4E"/>
</svg>
