<svg width="22" height="22" viewBox="0 0 22 22" fill="none" xmlns="http://www.w3.org/2000/svg">
<path d="M20.1393 16.8025C20.1393 17.1325 20.066 17.4717 19.9102 17.8017C19.7543 18.1317 19.5527 18.4434 19.2868 18.7367C18.8377 19.2317 18.3427 19.5892 17.7835 19.8184C17.2335 20.0475 16.6377 20.1667 15.996 20.1667C15.061 20.1667 14.0618 19.9467 13.0077 19.4975C11.9535 19.0484 10.8993 18.4434 9.85433 17.6825C8.80016 16.9125 7.801 16.06 6.84766 15.1159C5.9035 14.1625 5.051 13.1634 4.29016 12.1184C3.5385 11.0734 2.9335 10.0284 2.4935 8.99254C2.0535 7.94754 1.8335 6.94837 1.8335 5.99504C1.8335 5.37171 1.9435 4.77587 2.1635 4.22587C2.3835 3.66671 2.73183 3.15337 3.21766 2.69504C3.80433 2.11754 4.446 1.83337 5.12433 1.83337C5.381 1.83337 5.63766 1.88837 5.86683 1.99837C6.10516 2.10837 6.316 2.27337 6.481 2.51171L8.60766 5.50921C8.77266 5.73837 8.89183 5.94921 8.97433 6.15087C9.05683 6.34337 9.10266 6.53587 9.10266 6.71004C9.10266 6.93004 9.0385 7.15004 8.91016 7.36087C8.791 7.57171 8.61683 7.79171 8.39683 8.01171L7.70016 8.73587C7.59933 8.83671 7.5535 8.95587 7.5535 9.10254C7.5535 9.17587 7.56266 9.24004 7.581 9.31337C7.6085 9.38671 7.636 9.44171 7.65433 9.49671C7.81933 9.79921 8.1035 10.1934 8.50683 10.67C8.91933 11.1467 9.35933 11.6325 9.836 12.1184C10.331 12.6042 10.8077 13.0534 11.2935 13.4659C11.7702 13.8692 12.1643 14.1442 12.476 14.3092C12.5218 14.3275 12.5768 14.355 12.641 14.3825C12.7143 14.41 12.7877 14.4192 12.8702 14.4192C13.026 14.4192 13.1452 14.3642 13.246 14.2634L13.9427 13.5759C14.1718 13.3467 14.3918 13.1725 14.6027 13.0625C14.8135 12.9342 15.0243 12.87 15.2535 12.87C15.4277 12.87 15.611 12.9067 15.8127 12.9892C16.0143 13.0717 16.2252 13.1909 16.4543 13.3467L19.4885 15.5009C19.7268 15.6659 19.8918 15.8584 19.9927 16.0875C20.0843 16.3167 20.1393 16.5459 20.1393 16.8025Z" stroke="#00D865" stroke-width="1.5" stroke-miterlimit="10"/>
<path d="M16.9583 8.25008C16.9583 7.70008 16.5275 6.85675 15.8858 6.16925C15.2992 5.53675 14.52 5.04175 13.75 5.04175" stroke="#00D865" stroke-width="1.5" stroke-linecap="round" stroke-linejoin="round"/>
<path d="M20.1667 8.25004C20.1667 4.70254 17.2975 1.83337 13.75 1.83337" stroke="#00D865" stroke-width="1.5" stroke-linecap="round" stroke-linejoin="round"/>
</svg>
