<svg width="22" height="22" viewBox="0 0 22 22" fill="none" xmlns="http://www.w3.org/2000/svg">
<path d="M20.1388 16.8025C20.1388 17.1325 20.0655 17.4717 19.9097 17.8017C19.7538 18.1317 19.5522 18.4434 19.2863 18.7367C18.8372 19.2317 18.3422 19.5892 17.783 19.8184C17.233 20.0475 16.6372 20.1667 15.9955 20.1667C15.0605 20.1667 14.0613 19.9467 13.0072 19.4975C11.953 19.0484 10.8988 18.4434 9.85384 17.6825C8.79967 16.9125 7.80051 16.06 6.84717 15.1159C5.90301 14.1625 5.05051 13.1634 4.28967 12.1184C3.53801 11.0734 2.93301 10.0284 2.49301 8.99254C2.05301 7.94754 1.83301 6.94837 1.83301 5.99504C1.83301 5.37171 1.94301 4.77587 2.16301 4.22587C2.38301 3.66671 2.73134 3.15337 3.21717 2.69504C3.80384 2.11754 4.44551 1.83337 5.12384 1.83337C5.38051 1.83337 5.63717 1.88837 5.86634 1.99837C6.10467 2.10837 6.31551 2.27337 6.48051 2.51171L8.60717 5.50921C8.77217 5.73837 8.89134 5.94921 8.97384 6.15087C9.05634 6.34337 9.10217 6.53587 9.10217 6.71004C9.10217 6.93004 9.03801 7.15004 8.90967 7.36087C8.79051 7.57171 8.61634 7.79171 8.39634 8.01171L7.69967 8.73587C7.59884 8.83671 7.55301 8.95587 7.55301 9.10254C7.55301 9.17587 7.56217 9.24004 7.58051 9.31337C7.60801 9.38671 7.63551 9.44171 7.65384 9.49671C7.81884 9.79921 8.10301 10.1934 8.50634 10.67C8.91884 11.1467 9.35884 11.6325 9.83551 12.1184C10.3305 12.6042 10.8072 13.0534 11.293 13.4659C11.7697 13.8692 12.1638 14.1442 12.4755 14.3092C12.5213 14.3275 12.5763 14.355 12.6405 14.3825C12.7138 14.41 12.7872 14.4192 12.8697 14.4192C13.0255 14.4192 13.1447 14.3642 13.2455 14.2634L13.9422 13.5759C14.1713 13.3467 14.3913 13.1725 14.6022 13.0625C14.813 12.9342 15.0238 12.87 15.253 12.87C15.4272 12.87 15.6105 12.9067 15.8122 12.9892C16.0138 13.0717 16.2247 13.1909 16.4538 13.3467L19.488 15.5009C19.7263 15.6659 19.8913 15.8584 19.9922 16.0875C20.0838 16.3167 20.1388 16.5459 20.1388 16.8025Z" stroke="#4E4E4E" stroke-width="1.5" stroke-miterlimit="10"/>
<path d="M16.9583 8.25008C16.9583 7.70008 16.5275 6.85675 15.8858 6.16925C15.2992 5.53675 14.52 5.04175 13.75 5.04175" stroke="#4E4E4E" stroke-width="1.5" stroke-linecap="round" stroke-linejoin="round"/>
<path d="M20.1667 8.25004C20.1667 4.70254 17.2975 1.83337 13.75 1.83337" stroke="#4E4E4E" stroke-width="1.5" stroke-linecap="round" stroke-linejoin="round"/>
</svg>
