<svg width="90" height="90" viewBox="0 0 90 90" fill="none" xmlns="http://www.w3.org/2000/svg">
<circle cx="45" cy="45" r="42" fill="white" stroke="#00D865" stroke-width="6"/>
<path d="M35.45 64.2C35.45 63.7667 35.3667 63.55 35.2 63.55L34.05 64.1C34.05 63.8667 33.9167 63.7 33.65 63.6L33.25 63.55C32.9833 63.55 32.65 63.6667 32.25 63.9C32.1833 63.7333 32.1 63.5667 32 63.4C31.9 63.2333 31.8167 63.0833 31.75 62.95C31.3167 62.1167 30.8833 61.2 30.45 60.2C30.05 59.1667 29.6667 58.1833 29.3 57.25C28.9667 56.3167 28.7 55.5833 28.5 55.05C28.3667 54.6167 28.2167 53.9667 28.05 53.1C27.8833 52.2333 27.7167 51.1333 27.55 49.8C27.9167 50.0333 28.2 50.15 28.4 50.15C28.6333 50.15 28.85 49.8 29.05 49.1C29.15 49.2333 29.3333 49.3 29.6 49.3C29.8 49.3 29.95 49.2333 30.05 49.1L30.85 47.9L31.75 48.2H31.8C31.8667 48.2 31.9333 48.1667 32 48.1C32.0667 48.0333 32.1667 47.9667 32.3 47.9C32.5667 47.7333 32.7667 47.65 32.9 47.65L33.05 47.7C33.8833 48.1 34.4167 48.8333 34.65 49.9C35.25 52.4333 35.85 53.7 36.45 53.7C37.05 53.7 37.75 53.0667 38.55 51.8C38.95 51.1667 39.35 50.4333 39.75 49.6C40.1833 48.7667 40.6167 47.8333 41.05 46.8C41.1167 47.2 41.1833 47.4 41.25 47.4C41.4167 47.4 41.7 46.9833 42.1 46.15C42.5333 45.3167 43.2167 44.1667 44.15 42.7C44.6833 41.8 45.35 40.7833 46.15 39.65C46.9833 38.5167 47.8667 37.35 48.8 36.15C49.7333 34.95 50.6333 33.8167 51.5 32.75C52.4 31.6833 53.2 30.7667 53.9 30C54.6 29.2333 55.1167 28.7333 55.45 28.5C56.7167 27.6333 57.7167 26.8 58.45 26C58.4167 26.2333 58.3667 26.45 58.3 26.65C58.2667 26.8167 58.25 26.9333 58.25 27C58.25 27.1333 58.3167 27.2 58.45 27.2L59.85 26.5V26.7C59.85 26.9667 59.9167 27.1 60.05 27.1C60.15 27.1 60.35 26.95 60.65 26.65C60.95 26.35 61.1167 26.1333 61.15 26L61.05 26.7L62.75 25.7L62.35 26.6C62.8833 26.2333 63.2667 26.05 63.5 26.05C63.6333 26.05 63.7333 26.1333 63.8 26.3C63.8667 26.4333 63.9 26.5667 63.9 26.7C63.9 26.9 63.8167 27.1333 63.65 27.4C63.4833 27.6667 63.2667 27.9833 63 28.35C62.8 28.6167 62.4667 29.0167 62 29.55C61.5667 30.05 60.9 30.8 60 31.8C59.1 32.7667 57.9 34.1167 56.4 35.85C56 36.2833 55.3833 37.05 54.55 38.15C53.7167 39.2167 52.7667 40.4667 51.7 41.9C50.6667 43.3 49.6333 44.7167 48.6 46.15C47.5667 47.5833 46.65 48.8833 45.85 50.05C45.05 51.1833 44.4833 52.0333 44.15 52.6L41.05 57.85C40.3833 58.9833 39.8333 59.9167 39.4 60.65C38.9667 61.35 38.6333 61.8333 38.4 62.1C37.9 62.7 37.35 63.2333 36.75 63.7L36.3 63.45L35.9 63.7L35.45 64.2Z" fill="#00D865"/>
</svg>
