<svg width="29" height="24" viewBox="0 0 29 24" fill="none" xmlns="http://www.w3.org/2000/svg">
<path d="M18.826 12C18.826 13.98 16.8926 15.58 14.5001 15.58C12.1076 15.58 10.1743 13.98 10.1743 12C10.1743 10.02 12.1076 8.42004 14.5001 8.42004C16.8926 8.42004 18.826 10.02 18.826 12Z" stroke="#32A0EA" stroke-width="1.5" stroke-linecap="round" stroke-linejoin="round"/>
<path d="M14.4998 20.27C18.7652 20.27 22.7406 18.19 25.5077 14.59C26.5952 13.18 26.5952 10.81 25.5077 9.39997C22.7406 5.79997 18.7652 3.71997 14.4998 3.71997C10.2344 3.71997 6.25898 5.79997 3.49189 9.39997C2.40439 10.81 2.40439 13.18 3.49189 14.59C6.25898 18.19 10.2344 20.27 14.4998 20.27Z" stroke="#32A0EA" stroke-width="1.5" stroke-linecap="round" stroke-linejoin="round"/>
</svg>
