<svg width="32" height="32" viewBox="0 0 32 32" fill="none" xmlns="http://www.w3.org/2000/svg">
<g clip-path="url(#clip0_305_2992)">
<path d="M15.9997 2.66669C17.3182 2.66669 18.6071 3.05768 19.7035 3.79022C20.7998 4.52277 21.6543 5.56396 22.1589 6.78213C22.6635 8.0003 22.7955 9.34075 22.5382 10.634C22.281 11.9272 21.6461 13.115 20.7137 14.0474C19.7814 14.9797 18.5935 15.6147 17.3003 15.8719C16.0071 16.1292 14.6666 15.9971 13.4485 15.4926C12.2303 14.988 11.1891 14.1335 10.4565 13.0372C9.724 11.9408 9.33301 10.6519 9.33301 9.33335L9.33967 9.04402C9.41423 7.32769 10.1485 5.70639 11.3893 4.51823C12.6301 3.33008 14.2817 2.66679 15.9997 2.66669Z" fill="white"/>
<path d="M18.667 18.6667C20.4351 18.6667 22.1308 19.3691 23.381 20.6193C24.6313 21.8696 25.3337 23.5652 25.3337 25.3334V26.6667C25.3337 27.3739 25.0527 28.0522 24.5526 28.5523C24.0525 29.0524 23.3742 29.3334 22.667 29.3334H9.33366C8.62641 29.3334 7.94814 29.0524 7.44804 28.5523C6.94794 28.0522 6.66699 27.3739 6.66699 26.6667V25.3334C6.66699 23.5652 7.36937 21.8696 8.61961 20.6193C9.86986 19.3691 11.5655 18.6667 13.3337 18.6667H18.667Z" fill="white"/>
</g>
<defs>
<clipPath id="clip0_305_2992">
<rect width="32" height="32" fill="white"/>
</clipPath>
</defs>
</svg>
