<svg width="108" height="39" viewBox="0 0 108 39" fill="none" xmlns="http://www.w3.org/2000/svg">
<rect x="0.5" y="0.5" width="107" height="38" rx="5.5" fill="white"/>
<rect x="0.5" y="0.5" width="107" height="38" rx="5.5" stroke="#CECECE"/>
<path d="M44.2784 26V14.3636H51.4943V15.875H46.0341V19.4205H50.9773V20.9261H46.0341V26H44.2784ZM53.517 26V17.2727H55.2159V26H53.517ZM54.375 15.9261C54.0795 15.9261 53.8258 15.8277 53.6136 15.6307C53.4053 15.4299 53.3011 15.1913 53.3011 14.9148C53.3011 14.6345 53.4053 14.3958 53.6136 14.1989C53.8258 13.9981 54.0795 13.8977 54.375 13.8977C54.6705 13.8977 54.9223 13.9981 55.1307 14.1989C55.3428 14.3958 55.4489 14.6345 55.4489 14.9148C55.4489 15.1913 55.3428 15.4299 55.1307 15.6307C54.9223 15.8277 54.6705 15.9261 54.375 15.9261ZM59.2003 14.3636V26H57.5014V14.3636H59.2003ZM65.5597 17.2727V18.6364H60.7926V17.2727H65.5597ZM62.071 15.1818H63.7699V23.4375C63.7699 23.767 63.8191 24.0152 63.9176 24.1818C64.0161 24.3447 64.143 24.4564 64.2983 24.517C64.4574 24.5739 64.6297 24.6023 64.8153 24.6023C64.9517 24.6023 65.071 24.5928 65.1733 24.5739C65.2756 24.5549 65.3551 24.5398 65.4119 24.5284L65.7188 25.9318C65.6203 25.9697 65.4801 26.0076 65.2983 26.0455C65.1165 26.0871 64.8892 26.1098 64.6165 26.1136C64.1695 26.1212 63.7528 26.0417 63.3665 25.875C62.9801 25.7083 62.6676 25.4508 62.429 25.1023C62.1903 24.7538 62.071 24.3163 62.071 23.7898V15.1818ZM71.1065 26.1761C70.2467 26.1761 69.5062 25.9924 68.8849 25.625C68.2675 25.2538 67.7902 24.733 67.4531 24.0625C67.1198 23.3883 66.9531 22.5985 66.9531 21.6932C66.9531 20.7992 67.1198 20.0114 67.4531 19.3295C67.7902 18.6477 68.2599 18.1155 68.8622 17.733C69.4683 17.3504 70.1766 17.1591 70.9872 17.1591C71.4796 17.1591 71.9569 17.2405 72.419 17.4034C72.8812 17.5663 73.2959 17.822 73.6634 18.1705C74.0308 18.5189 74.3205 18.9716 74.5327 19.5284C74.7448 20.0814 74.8509 20.7538 74.8509 21.5455V22.1477H67.9134V20.875H73.1861C73.1861 20.428 73.0952 20.0322 72.9134 19.6875C72.7315 19.339 72.4759 19.0644 72.1463 18.8636C71.8205 18.6629 71.438 18.5625 70.9986 18.5625C70.5213 18.5625 70.1046 18.6799 69.7486 18.9148C69.3963 19.1458 69.1236 19.4489 68.9304 19.8239C68.741 20.1951 68.6463 20.5985 68.6463 21.0341V22.0284C68.6463 22.6117 68.7486 23.108 68.9531 23.517C69.1615 23.9261 69.4512 24.2386 69.8224 24.4545C70.1937 24.6667 70.6274 24.7727 71.1236 24.7727C71.4455 24.7727 71.7391 24.7273 72.0043 24.6364C72.2694 24.5417 72.4986 24.4015 72.6918 24.2159C72.8849 24.0303 73.0327 23.8011 73.1349 23.5284L74.7429 23.8182C74.6141 24.2917 74.383 24.7064 74.0497 25.0625C73.7202 25.4148 73.3054 25.6894 72.8054 25.8864C72.3092 26.0795 71.7429 26.1761 71.1065 26.1761ZM76.7358 26V17.2727H78.3778V18.6591H78.4688C78.6278 18.1894 78.9081 17.8201 79.3097 17.5511C79.715 17.2784 80.1733 17.142 80.6847 17.142C80.7907 17.142 80.9157 17.1458 81.0597 17.1534C81.2074 17.161 81.3229 17.1705 81.4062 17.1818V18.8068C81.3381 18.7879 81.2169 18.767 81.0426 18.7443C80.8684 18.7178 80.6941 18.7045 80.5199 18.7045C80.1184 18.7045 79.7604 18.7898 79.446 18.9602C79.1354 19.1269 78.8892 19.3598 78.7074 19.6591C78.5256 19.9545 78.4347 20.2917 78.4347 20.6705V26H76.7358ZM89.4162 19.4034L87.8764 19.6761C87.812 19.4792 87.7098 19.2917 87.5696 19.1136C87.4332 18.9356 87.2476 18.7898 87.0128 18.6761C86.7779 18.5625 86.4844 18.5057 86.1321 18.5057C85.651 18.5057 85.2495 18.6136 84.9276 18.8295C84.6056 19.0417 84.4446 19.3163 84.4446 19.6534C84.4446 19.9451 84.5526 20.1799 84.7685 20.358C84.9844 20.536 85.3329 20.6818 85.8139 20.7955L87.2003 21.1136C88.0033 21.2992 88.6018 21.5852 88.9957 21.9716C89.3897 22.358 89.5866 22.8598 89.5866 23.4773C89.5866 24 89.4351 24.4659 89.1321 24.875C88.8329 25.2803 88.4143 25.5985 87.8764 25.8295C87.3423 26.0606 86.723 26.1761 86.0185 26.1761C85.0412 26.1761 84.2438 25.9678 83.6264 25.5511C83.009 25.1307 82.6302 24.5341 82.4901 23.7614L84.1321 23.5114C84.2344 23.9394 84.4446 24.2633 84.7628 24.483C85.081 24.6989 85.4957 24.8068 86.0071 24.8068C86.5639 24.8068 87.009 24.6913 87.3423 24.4602C87.6757 24.2254 87.8423 23.9394 87.8423 23.6023C87.8423 23.3295 87.7401 23.1004 87.5355 22.9148C87.3348 22.7292 87.026 22.589 86.6094 22.4943L85.1321 22.1705C84.3177 21.9848 83.7154 21.6894 83.3253 21.2841C82.9389 20.8788 82.7457 20.3655 82.7457 19.7443C82.7457 19.2292 82.8897 18.7784 83.1776 18.392C83.4654 18.0057 83.8632 17.7045 84.3707 17.4886C84.8783 17.2689 85.4598 17.1591 86.1151 17.1591C87.0582 17.1591 87.8007 17.3636 88.3423 17.7727C88.884 18.178 89.242 18.7216 89.4162 19.4034Z" fill="#2E2E2E"/>
<path d="M33.333 14.6875H28.333" stroke="#2E2E2E" stroke-width="1.5" stroke-miterlimit="10" stroke-linecap="round" stroke-linejoin="round"/>
<path d="M20.0003 14.6875H16.667" stroke="#2E2E2E" stroke-width="1.5" stroke-miterlimit="10" stroke-linecap="round" stroke-linejoin="round"/>
<path d="M23.3337 17.75C24.9445 17.75 26.2503 16.3789 26.2503 14.6875C26.2503 12.9961 24.9445 11.625 23.3337 11.625C21.7228 11.625 20.417 12.9961 20.417 14.6875C20.417 16.3789 21.7228 17.75 23.3337 17.75Z" stroke="#2E2E2E" stroke-width="1.5" stroke-miterlimit="10" stroke-linecap="round" stroke-linejoin="round"/>
<path d="M33.3333 24.3125H30" stroke="#2E2E2E" stroke-width="1.5" stroke-miterlimit="10" stroke-linecap="round" stroke-linejoin="round"/>
<path d="M21.667 24.3125H16.667" stroke="#2E2E2E" stroke-width="1.5" stroke-miterlimit="10" stroke-linecap="round" stroke-linejoin="round"/>
<path d="M26.6667 27.375C28.2775 27.375 29.5833 26.0039 29.5833 24.3125C29.5833 22.6211 28.2775 21.25 26.6667 21.25C25.0558 21.25 23.75 22.6211 23.75 24.3125C23.75 26.0039 25.0558 27.375 26.6667 27.375Z" stroke="#2E2E2E" stroke-width="1.5" stroke-miterlimit="10" stroke-linecap="round" stroke-linejoin="round"/>
</svg>
