<svg width="24" height="24" viewBox="0 0 24 24" fill="none" xmlns="http://www.w3.org/2000/svg">
<g clip-path="url(#clip0_305_2795)">
<path d="M16 2C16.183 2 16.355 2.05 16.502 2.135L16.535 2.155C16.815 2.332 17 2.645 17 3V4H18C18.7652 3.99996 19.5015 4.29233 20.0583 4.81728C20.615 5.34224 20.9501 6.06011 20.995 6.824L21 7V19C21 19.7652 20.7077 20.5015 20.1827 21.0583C19.6578 21.615 18.9399 21.9501 18.176 21.995L18 22H6C5.23479 22 4.49849 21.7077 3.94174 21.1827C3.38499 20.6578 3.04989 19.9399 3.005 19.176L3 19V7C2.99996 6.23479 3.29233 5.49849 3.81728 4.94174C4.34224 4.38499 5.06011 4.04989 5.824 4.005L6 4H7V3C6.99999 2.82173 7.04764 2.64669 7.13802 2.49302C7.22839 2.33936 7.3582 2.21264 7.514 2.126L7.607 2.08L7.673 2.055L7.773 2.026L7.88 2.007L8 2C8.05533 2 8.109 2.00433 8.161 2.013L8.283 2.042L8.323 2.054L8.383 2.077C8.711 2.212 8.951 2.517 8.993 2.883L9 3V4H15V3C15 2.73478 15.1054 2.48043 15.2929 2.29289C15.4804 2.10536 15.7348 2 16 2ZM19 9H5V18.625C5 19.33 5.386 19.911 5.883 19.991L6 20H18C18.513 20 18.936 19.47 18.993 18.785L19 18.625V9Z" fill="#E6E6E6"/>
<path d="M9.01496 13C9.01496 13.2652 8.9096 13.5195 8.72207 13.7071C8.53453 13.8946 8.28018 14 8.01496 14C7.8799 14.0063 7.74494 13.9853 7.61824 13.9381C7.49154 13.8908 7.37572 13.8185 7.27776 13.7252C7.17981 13.632 7.10176 13.5199 7.04831 13.3957C6.99487 13.2715 6.96714 13.1378 6.9668 13.0026C6.96646 12.8674 6.99352 12.7335 7.04634 12.609C7.09917 12.4846 7.17666 12.3721 7.27415 12.2784C7.37163 12.1847 7.48709 12.1117 7.61356 12.0639C7.74002 12.016 7.87487 11.9943 8.00996 12C8.56696 12 9.01496 12.448 9.01496 13Z" fill="#E6E6E6"/>
<path d="M13.015 13C13.015 13.2652 12.9096 13.5195 12.7221 13.7071C12.5345 13.8946 12.2802 14 12.015 14C11.8799 14.0063 11.7449 13.9853 11.6182 13.9381C11.4915 13.8908 11.3757 13.8185 11.2778 13.7252C11.1798 13.632 11.1018 13.5199 11.0483 13.3957C10.9949 13.2715 10.9671 13.1378 10.9668 13.0026C10.9665 12.8674 10.9935 12.7335 11.0463 12.609C11.0992 12.4846 11.1767 12.3721 11.2741 12.2784C11.3716 12.1847 11.4871 12.1117 11.6136 12.0639C11.74 12.016 11.8749 11.9943 12.01 12C12.567 12 13.015 12.448 13.015 13Z" fill="#E6E6E6"/>
<path d="M17.0198 13C17.0198 13.2652 16.9145 13.5195 16.7269 13.7071C16.5394 13.8946 16.2851 14 16.0198 14C15.8848 14.0063 15.7498 13.9853 15.6231 13.9381C15.4964 13.8908 15.3806 13.8185 15.2826 13.7252C15.1847 13.632 15.1066 13.5199 15.0532 13.3957C14.9997 13.2715 14.972 13.1378 14.9717 13.0026C14.9713 12.8674 14.9984 12.7335 15.0512 12.609C15.1041 12.4846 15.1815 12.3721 15.279 12.2784C15.3765 12.1847 15.492 12.1117 15.6184 12.0639C15.7449 12.016 15.8797 11.9943 16.0148 12C16.5718 12 17.0198 12.448 17.0198 13Z" fill="#E6E6E6"/>
<path d="M12.0198 15C12.2851 15 12.5394 15.1053 12.7269 15.2929C12.9145 15.4804 13.0198 15.7348 13.0198 16C13.0198 16.2652 12.9145 16.5195 12.7269 16.7071C12.5394 16.8946 12.2851 17 12.0198 17C11.8848 17.0063 11.7498 16.9853 11.6231 16.9381C11.4964 16.8909 11.3806 16.8185 11.2826 16.7252C11.1847 16.632 11.1066 16.5199 11.0532 16.3957C10.9997 16.2715 10.972 16.1378 10.9717 16.0026C10.9713 15.8674 10.9984 15.7335 11.0512 15.609C11.1041 15.4846 11.1815 15.3721 11.279 15.2784C11.3765 15.1847 11.492 15.1117 11.6184 15.0639C11.7449 15.016 11.8797 14.9943 12.0148 15H12.0198Z" fill="#E6E6E6"/>
<path d="M9.01496 16C9.01496 16.2652 8.9096 16.5195 8.72207 16.7071C8.53453 16.8946 8.28018 17 8.01496 17C7.8799 17.0063 7.74494 16.9853 7.61824 16.9381C7.49154 16.8909 7.37572 16.8185 7.27776 16.7252C7.17981 16.632 7.10176 16.5199 7.04831 16.3957C6.99487 16.2715 6.96714 16.1378 6.9668 16.0026C6.96646 15.8674 6.99352 15.7335 7.04634 15.609C7.09917 15.4846 7.17666 15.3721 7.27415 15.2784C7.37163 15.1847 7.48709 15.1117 7.61356 15.0639C7.74002 15.016 7.87487 14.9943 8.00996 15C8.56696 15 9.01496 15.448 9.01496 16Z" fill="#E6E6E6"/>
</g>
<defs>
<clipPath id="clip0_305_2795">
<rect width="24" height="24" fill="white"/>
</clipPath>
</defs>
</svg>
