<svg width="16" height="20" viewBox="0 0 16 20" fill="none" xmlns="http://www.w3.org/2000/svg">
<path d="M13.997 2.17C14.5827 2.37638 15.09 2.75945 15.4487 3.26635C15.8075 3.77324 16.0001 4.37899 16 5V17C16 17.7956 15.6839 18.5587 15.1213 19.1213C14.5587 19.6839 13.7956 20 13 20H3C2.20435 20 1.44129 19.6839 0.87868 19.1213C0.316071 18.5587 4.40551e-08 17.7956 4.40551e-08 17V5C-0.000106354 4.37899 0.192512 3.77324 0.551281 3.26635C0.910049 2.75945 1.41728 2.37638 2.003 2.17C2.04684 3.20061 2.48713 4.17443 3.23194 4.88812C3.97674 5.6018 4.96846 6.00016 6 6H10C10.9912 6.00009 11.947 5.63219 12.6824 4.96761C13.4177 4.30303 13.8801 3.38911 13.98 2.403L13.997 2.17ZM11 13H5C4.73478 13 4.48043 13.1054 4.29289 13.2929C4.10536 13.4804 4 13.7348 4 14C4 14.2652 4.10536 14.5196 4.29289 14.7071C4.48043 14.8946 4.73478 15 5 15H11C11.2652 15 11.5196 14.8946 11.7071 14.7071C11.8946 14.5196 12 14.2652 12 14C12 13.7348 11.8946 13.4804 11.7071 13.2929C11.5196 13.1054 11.2652 13 11 13ZM11 9H5C4.73478 9 4.48043 9.10536 4.29289 9.29289C4.10536 9.48043 4 9.73478 4 10C4 10.2652 4.10536 10.5196 4.29289 10.7071C4.48043 10.8946 4.73478 11 5 11H11C11.2652 11 11.5196 10.8946 11.7071 10.7071C11.8946 10.5196 12 10.2652 12 10C12 9.73478 11.8946 9.48043 11.7071 9.29289C11.5196 9.10536 11.2652 9 11 9ZM10 0C10.5304 0 11.0391 0.210714 11.4142 0.585786C11.7893 0.960859 12 1.46957 12 2C12 2.53043 11.7893 3.03914 11.4142 3.41421C11.0391 3.78929 10.5304 4 10 4H6C5.46957 4 4.96086 3.78929 4.58579 3.41421C4.21071 3.03914 4 2.53043 4 2C4 1.46957 4.21071 0.960859 4.58579 0.585786C4.96086 0.210714 5.46957 0 6 0H10Z" fill="#E6E6E6"/>
</svg>
