<svg width="21" height="21" viewBox="0 0 21 21" fill="none" xmlns="http://www.w3.org/2000/svg">
<path d="M6.34375 6.125H14.6562V4.375C14.6562 2.625 14 1.75 12.0312 1.75H8.96875C7 1.75 6.34375 2.625 6.34375 4.375V6.125Z" stroke="white" stroke-width="1.5" stroke-miterlimit="10" stroke-linecap="round" stroke-linejoin="round"/>
<path d="M14 13.125V16.625C14 18.375 13.125 19.25 11.375 19.25H9.625C7.875 19.25 7 18.375 7 16.625V13.125H14Z" stroke="white" stroke-width="1.5" stroke-miterlimit="10" stroke-linecap="round" stroke-linejoin="round"/>
<path d="M18.375 8.75V13.125C18.375 14.875 17.5 15.75 15.75 15.75H14V13.125H7V15.75H5.25C3.5 15.75 2.625 14.875 2.625 13.125V8.75C2.625 7 3.5 6.125 5.25 6.125H15.75C17.5 6.125 18.375 7 18.375 8.75Z" stroke="white" stroke-width="1.5" stroke-miterlimit="10" stroke-linecap="round" stroke-linejoin="round"/>
<path d="M14.875 13.125H13.8162H6.125" stroke="white" stroke-width="1.5" stroke-miterlimit="10" stroke-linecap="round" stroke-linejoin="round"/>
<path d="M6.125 9.625H8.75" stroke="white" stroke-width="1.5" stroke-miterlimit="10" stroke-linecap="round" stroke-linejoin="round"/>
</svg>
